<svg fill="none" height="25" viewBox="0 0 24 25" width="24" xmlns="http://www.w3.org/2000/svg"><g fill="#000"><path d="m15.8 23.968c-2.5 0-4.8-1.3-6.10001-3.4-1.3-2.1-1.4-4.7-.3-7l5.50001-11.09998c.3-.7 1.4-.7 1.8 0l5.5 11.09998c1.1 2.2 1 4.9-.3 7s-3.6 3.4-6.1 3.4zm0-18.79998-4.6 9.29998c-.8 1.6-.7 3.5.2 5s2.6 2.5 4.4 2.5 3.5-.9 4.4-2.5c1-1.5 1-3.4.2-5z"/><path d="m4.80001 12.968c-1.3 0-2.5-.7-3.2-1.8-.699996-1.1-.799996-2.49998-.2-3.69998l2.5-5c.3-.7 1.5-.7 1.8 0l2.5 5c.6 1.2.5 2.59998-.2 3.69998-.6 1.2-1.9 1.8-3.2 1.8zm0-7.79998-1.6 3.2c-.3.6-.3 1.2.1 1.79998.3.5.9.8 1.5.8s1.2-.3 1.6-.8c.3-.59998.3-1.19998 0-1.79998z"/></g></svg>